<?xml version="1.0" encoding="UTF-8"?>
<svg width="32" height="32" viewBox="0 0 32 32" fill="none" xmlns="http://www.w3.org/2000/svg">
  <!-- 大脑外形 -->
  <path d="M16 4C21.5228 4 26 8.47715 26 14C26 17.3137 24.3137 20.2447 21.7279 21.9142C20.2584 22.9501 19.2482 24.5 19.0255 26.2871L18.8 28H13.2L12.9745 26.2871C12.7518 24.5 11.7416 22.9501 10.2721 21.9142C7.68629 20.2447 6 17.3137 6 14C6 8.47715 10.4772 4 16 4Z" fill="#4F46E5"/>
  
  <!-- 内部纹理 -->
  <path d="M16 7C20.4183 7 24 10.5817 24 15C24 17.7614 22.5777 20.1951 20.3753 21.5777" stroke="white" stroke-width="1.5" stroke-linecap="round"/>
  <path d="M11.6247 21.5777C9.42229 20.1951 8 17.7614 8 15C8 10.5817 11.5817 7 16 7" stroke="white" stroke-width="1.5" stroke-linecap="round"/>
  
  <!-- 波浪线 -->
  <path d="M13 18C14 17.3333 15 17.3333 16 18C17 18.6667 18 18.6667 19 18" stroke="white" stroke-width="1.5" stroke-linecap="round"/>
</svg>
